<svg width="256" height="256" viewBox="0 0 80 80" xmlns="http://www.w3.org/2000/svg">
  <rect width="80" height="80" rx="18" fill="#1565C0"/>
  <rect x="12" y="10" width="42" height="52" rx="5" fill="#FFFFFF" opacity="0.18"/>
  <rect x="12" y="10" width="42" height="52" rx="5" fill="none" stroke="#FFFFFF" stroke-width="2" opacity="0.8"/>
  <rect x="12" y="10" width="42" height="10" rx="5" fill="#FFFFFF" opacity="0.25"/>
  <rect x="12" y="15" width="42" height="5" fill="#FFFFFF" opacity="0.08"/>
  <rect x="20" y="26" width="26" height="3.5" rx="1.5" fill="#FFFFFF" opacity="0.95"/>
  <rect x="20" y="34" width="26" height="3" rx="1.5" fill="#FFFFFF" opacity="0.7"/>
  <rect x="20" y="42" width="18" height="3" rx="1.5" fill="#FFFFFF" opacity="0.7"/>
  <rect x="20" y="50" width="22" height="3" rx="1.5" fill="#FFFFFF" opacity="0.5"/>
  <circle cx="57" cy="57" r="15" fill="#0D47A1" stroke="#64B5F6" stroke-width="2"/>
  <path d="M51 61 L56 50 L61 61" fill="none" stroke="#FFFFFF" stroke-width="2.2" stroke-linecap="round" stroke-linejoin="round"/>
  <line x1="53" y1="57" x2="59" y2="57" stroke="#FFFFFF" stroke-width="2" stroke-linecap="round"/>
  <line x1="57" y1="63" x2="57" y2="65" stroke="#FFFFFF" stroke-width="2" stroke-linecap="round"/>
</svg>
